<mxfile host="app.diagrams.net" agent="Mozilla/5.0 (Windows NT 10.0; Win64; x64; rv:135.0) Gecko/20100101 Firefox/135.0" version="26.0.11">
  <diagram name="Page-1" id="pRMen_kfYpo-IQk9Pl99">
    <mxGraphModel dx="2430" dy="2493" grid="1" gridSize="10" guides="1" tooltips="1" connect="1" arrows="1" fold="1" page="1" pageScale="1" pageWidth="850" pageHeight="1100" math="0" shadow="0">
      <root>
        <mxCell id="0" />
        <mxCell id="1" parent="0" />
        <mxCell id="O6OngiWErMgS7959sYpe-64" style="edgeStyle=orthogonalEdgeStyle;rounded=0;orthogonalLoop=1;jettySize=auto;html=1;exitX=0.5;exitY=1;exitDx=0;exitDy=0;" edge="1" parent="1" source="O6OngiWErMgS7959sYpe-24" target="O6OngiWErMgS7959sYpe-59">
          <mxGeometry relative="1" as="geometry" />
        </mxCell>
        <mxCell id="O6OngiWErMgS7959sYpe-24" value="&lt;span data-teams=&quot;true&quot;&gt;Main&lt;br&gt;&lt;/span&gt;" style="swimlane;childLayout=stackLayout;horizontal=1;startSize=50;horizontalStack=0;rounded=1;fontSize=14;fontStyle=0;strokeWidth=2;resizeParent=0;resizeLast=1;shadow=0;dashed=0;align=center;arcSize=4;whiteSpace=wrap;html=1;" vertex="1" parent="1">
          <mxGeometry x="200" y="-190" width="125" height="80" as="geometry" />
        </mxCell>
        <mxCell id="O6OngiWErMgS7959sYpe-25" value="&lt;span data-teams=&quot;true&quot;&gt;- main(String[]): void&lt;/span&gt;" style="align=left;strokeColor=none;fillColor=none;spacingLeft=4;fontSize=12;verticalAlign=top;resizable=0;rotatable=0;part=1;html=1;" vertex="1" parent="O6OngiWErMgS7959sYpe-24">
          <mxGeometry y="50" width="125" height="30" as="geometry" />
        </mxCell>
        <mxCell id="O6OngiWErMgS7959sYpe-26" value="&lt;span data-teams=&quot;true&quot;&gt;Customer&lt;/span&gt;" style="swimlane;childLayout=stackLayout;horizontal=1;startSize=50;horizontalStack=0;rounded=1;fontSize=14;fontStyle=0;strokeWidth=2;resizeParent=0;resizeLast=1;shadow=0;dashed=0;align=center;arcSize=4;whiteSpace=wrap;html=1;" vertex="1" parent="1">
          <mxGeometry x="765" y="-480" width="140" height="230" as="geometry" />
        </mxCell>
        <mxCell id="O6OngiWErMgS7959sYpe-27" value="- id: String&lt;br&gt;- name: String&lt;br&gt;- phoneMobile: String&lt;br&gt;- job: String&lt;br&gt;- address: String&lt;br&gt;- email: String&lt;br&gt;- city: String&lt;br&gt;- username: String&lt;br&gt;- password: String&lt;br&gt;- Methods:&lt;br&gt;&amp;nbsp; - toString(): String" style="align=left;strokeColor=none;fillColor=none;spacingLeft=4;fontSize=12;verticalAlign=top;resizable=0;rotatable=0;part=1;html=1;" vertex="1" parent="O6OngiWErMgS7959sYpe-26">
          <mxGeometry y="50" width="140" height="180" as="geometry" />
        </mxCell>
        <mxCell id="O6OngiWErMgS7959sYpe-28" value="Smartphone" style="swimlane;childLayout=stackLayout;horizontal=1;startSize=50;horizontalStack=0;rounded=1;fontSize=14;fontStyle=0;strokeWidth=2;resizeParent=0;resizeLast=1;shadow=0;dashed=0;align=center;arcSize=4;whiteSpace=wrap;html=1;" vertex="1" parent="1">
          <mxGeometry x="760" y="186" width="150" height="227" as="geometry" />
        </mxCell>
        <mxCell id="O6OngiWErMgS7959sYpe-29" value="- id: String&lt;br&gt;- brand: String&lt;br&gt;- model: String&lt;br&gt;- price: double&lt;br&gt;- storage: String&lt;br&gt;- batteryCapacity: int&lt;br&gt;- resolution: String&lt;br&gt;- screenSize: String&lt;br&gt;- ram: int&lt;br&gt;- Methods:&lt;br&gt;&amp;nbsp; - toString(): String" style="align=left;strokeColor=none;fillColor=none;spacingLeft=4;fontSize=12;verticalAlign=top;resizable=0;rotatable=0;part=1;html=1;" vertex="1" parent="O6OngiWErMgS7959sYpe-28">
          <mxGeometry y="50" width="150" height="177" as="geometry" />
        </mxCell>
        <mxCell id="O6OngiWErMgS7959sYpe-30" value="Order" style="swimlane;childLayout=stackLayout;horizontal=1;startSize=50;horizontalStack=0;rounded=1;fontSize=14;fontStyle=0;strokeWidth=2;resizeParent=0;resizeLast=1;shadow=0;dashed=0;align=center;arcSize=4;whiteSpace=wrap;html=1;" vertex="1" parent="1">
          <mxGeometry x="750" y="-210" width="170" height="165" as="geometry" />
        </mxCell>
        <mxCell id="O6OngiWErMgS7959sYpe-31" value="- id: String&lt;br&gt;- customer: Customer&lt;br&gt;- orderItems: List&amp;lt;OrderItem&amp;gt;&lt;br&gt;- date: String&lt;br&gt;- price: double&lt;br&gt;- Methods:&lt;br&gt;&amp;nbsp; - toString(): String" style="align=left;strokeColor=none;fillColor=none;spacingLeft=4;fontSize=12;verticalAlign=top;resizable=0;rotatable=0;part=1;html=1;" vertex="1" parent="O6OngiWErMgS7959sYpe-30">
          <mxGeometry y="50" width="170" height="115" as="geometry" />
        </mxCell>
        <mxCell id="O6OngiWErMgS7959sYpe-35" value="OrderService" style="swimlane;childLayout=stackLayout;horizontal=1;startSize=50;horizontalStack=0;rounded=1;fontSize=14;fontStyle=0;strokeWidth=2;resizeParent=0;resizeLast=1;shadow=0;dashed=0;align=center;arcSize=4;whiteSpace=wrap;html=1;" vertex="1" parent="1">
          <mxGeometry x="-130" y="210" width="180" height="150" as="geometry" />
        </mxCell>
        <mxCell id="O6OngiWErMgS7959sYpe-36" value="- Methods:&lt;br&gt;&amp;nbsp; - addOrder(): void&lt;br&gt;&amp;nbsp; - updateOrder(): void&lt;br&gt;&amp;nbsp; - showAllOrders(): void&lt;br&gt;&amp;nbsp; - getOrderById(String): Order&lt;br&gt;&amp;nbsp; - allOrders(): List&amp;lt;Order&amp;gt;" style="align=left;strokeColor=none;fillColor=none;spacingLeft=4;fontSize=12;verticalAlign=top;resizable=0;rotatable=0;part=1;html=1;" vertex="1" parent="O6OngiWErMgS7959sYpe-35">
          <mxGeometry y="50" width="180" height="100" as="geometry" />
        </mxCell>
        <mxCell id="O6OngiWErMgS7959sYpe-38" value="CustomerService" style="swimlane;childLayout=stackLayout;horizontal=1;startSize=50;horizontalStack=0;rounded=1;fontSize=14;fontStyle=0;strokeWidth=2;resizeParent=0;resizeLast=1;shadow=0;dashed=0;align=center;arcSize=4;whiteSpace=wrap;html=1;" vertex="1" parent="1">
          <mxGeometry x="152.5" y="250" width="220" height="140" as="geometry" />
        </mxCell>
        <mxCell id="O6OngiWErMgS7959sYpe-39" value="- Methods:&lt;br&gt;&amp;nbsp; - addCustomer(Customer): void&lt;br&gt;&amp;nbsp; - updateCustomer(Customer): void&lt;br&gt;&amp;nbsp; - getCustomerById(String): Customer&lt;br&gt;&amp;nbsp; - allCustomers(): List&amp;lt;Customer&amp;gt;" style="align=left;strokeColor=none;fillColor=none;spacingLeft=4;fontSize=12;verticalAlign=top;resizable=0;rotatable=0;part=1;html=1;" vertex="1" parent="O6OngiWErMgS7959sYpe-38">
          <mxGeometry y="50" width="220" height="90" as="geometry" />
        </mxCell>
        <mxCell id="O6OngiWErMgS7959sYpe-42" value="SmartphoneService" style="swimlane;childLayout=stackLayout;horizontal=1;startSize=50;horizontalStack=0;rounded=1;fontSize=14;fontStyle=0;strokeWidth=2;resizeParent=0;resizeLast=1;shadow=0;dashed=0;align=center;arcSize=4;whiteSpace=wrap;html=1;" vertex="1" parent="1">
          <mxGeometry x="450" y="250" width="250" height="150" as="geometry" />
        </mxCell>
        <mxCell id="O6OngiWErMgS7959sYpe-43" value="- Methods:&lt;br&gt;&amp;nbsp; - deleteSmartphoneById(String): void&lt;br&gt;&amp;nbsp; - getSmartphoneById(String): Smartphone&lt;br&gt;&amp;nbsp; - updateSmartphone(Smartphone): void&lt;br&gt;&amp;nbsp; - addSmartphone(Smartphone): void&lt;br&gt;&amp;nbsp; - allSmartphones(): List&amp;lt;Smartphone&amp;gt;" style="align=left;strokeColor=none;fillColor=none;spacingLeft=4;fontSize=12;verticalAlign=top;resizable=0;rotatable=0;part=1;html=1;" vertex="1" parent="O6OngiWErMgS7959sYpe-42">
          <mxGeometry y="50" width="250" height="100" as="geometry" />
        </mxCell>
        <mxCell id="O6OngiWErMgS7959sYpe-44" value="OrderController" style="swimlane;childLayout=stackLayout;horizontal=1;startSize=50;horizontalStack=0;rounded=1;fontSize=14;fontStyle=0;strokeWidth=2;resizeParent=0;resizeLast=1;shadow=0;dashed=0;align=center;arcSize=4;whiteSpace=wrap;html=1;" vertex="1" parent="1">
          <mxGeometry x="-120" y="60" width="160" height="120" as="geometry" />
        </mxCell>
        <mxCell id="O6OngiWErMgS7959sYpe-45" value="- Methods:&lt;br&gt;&amp;nbsp; - addOrder(Order): void&lt;br&gt;&amp;nbsp; - deleteOrder(String): void&lt;br&gt;&amp;nbsp; - showAllOrders(): void" style="align=left;strokeColor=none;fillColor=none;spacingLeft=4;fontSize=12;verticalAlign=top;resizable=0;rotatable=0;part=1;html=1;" vertex="1" parent="O6OngiWErMgS7959sYpe-44">
          <mxGeometry y="50" width="160" height="70" as="geometry" />
        </mxCell>
        <mxCell id="O6OngiWErMgS7959sYpe-46" value="CustomerController" style="swimlane;childLayout=stackLayout;horizontal=1;startSize=50;horizontalStack=0;rounded=1;fontSize=14;fontStyle=0;strokeWidth=2;resizeParent=0;resizeLast=1;shadow=0;dashed=0;align=center;arcSize=4;whiteSpace=wrap;html=1;" vertex="1" parent="1">
          <mxGeometry x="167.5" y="60" width="190" height="140" as="geometry" />
        </mxCell>
        <mxCell id="O6OngiWErMgS7959sYpe-47" value="- Methods:&lt;br&gt;&amp;nbsp; - addCustomer(Customer): void&lt;br&gt;&amp;nbsp; - showAllCustomers(): void&lt;br&gt;&amp;nbsp; - manageCustomer(): void&lt;br&gt;&amp;nbsp; - deleteCustomer(): void" style="align=left;strokeColor=none;fillColor=none;spacingLeft=4;fontSize=12;verticalAlign=top;resizable=0;rotatable=0;part=1;html=1;" vertex="1" parent="O6OngiWErMgS7959sYpe-46">
          <mxGeometry y="50" width="190" height="90" as="geometry" />
        </mxCell>
        <mxCell id="O6OngiWErMgS7959sYpe-48" value="SmartphoneController" style="swimlane;childLayout=stackLayout;horizontal=1;startSize=50;horizontalStack=0;rounded=1;fontSize=14;fontStyle=0;strokeWidth=2;resizeParent=0;resizeLast=1;shadow=0;dashed=0;align=center;arcSize=4;whiteSpace=wrap;html=1;" vertex="1" parent="1">
          <mxGeometry x="460" y="60" width="230" height="120" as="geometry" />
        </mxCell>
        <mxCell id="O6OngiWErMgS7959sYpe-49" value="- Methods:&lt;br&gt;&amp;nbsp; - manageSmartphone(): void&lt;br&gt;&amp;nbsp; - addSmartphone(Smartphone): void&lt;br&gt;&amp;nbsp; - updateSmartphone(Smartphone): void" style="align=left;strokeColor=none;fillColor=none;spacingLeft=4;fontSize=12;verticalAlign=top;resizable=0;rotatable=0;part=1;html=1;" vertex="1" parent="O6OngiWErMgS7959sYpe-48">
          <mxGeometry y="50" width="230" height="70" as="geometry" />
        </mxCell>
        <mxCell id="O6OngiWErMgS7959sYpe-51" value="MongoDB" style="swimlane;childLayout=stackLayout;horizontal=1;startSize=50;horizontalStack=0;rounded=1;fontSize=14;fontStyle=0;strokeWidth=2;resizeParent=0;resizeLast=1;shadow=0;dashed=0;align=center;arcSize=4;whiteSpace=wrap;html=1;" vertex="1" parent="1">
          <mxGeometry x="177.5" y="680" width="170" height="110" as="geometry" />
        </mxCell>
        <mxCell id="O6OngiWErMgS7959sYpe-52" value="- database: MongoDatabase&lt;br&gt;- Methods:&lt;br&gt;&amp;nbsp; - closeConnection(): void" style="align=left;strokeColor=none;fillColor=none;spacingLeft=4;fontSize=12;verticalAlign=top;resizable=0;rotatable=0;part=1;html=1;" vertex="1" parent="O6OngiWErMgS7959sYpe-51">
          <mxGeometry y="50" width="170" height="60" as="geometry" />
        </mxCell>
        <mxCell id="O6OngiWErMgS7959sYpe-83" style="edgeStyle=orthogonalEdgeStyle;rounded=0;orthogonalLoop=1;jettySize=auto;html=1;exitX=0.5;exitY=1;exitDx=0;exitDy=0;entryX=0.5;entryY=0;entryDx=0;entryDy=0;" edge="1" parent="1" source="O6OngiWErMgS7959sYpe-53" target="O6OngiWErMgS7959sYpe-51">
          <mxGeometry relative="1" as="geometry" />
        </mxCell>
        <mxCell id="O6OngiWErMgS7959sYpe-53" value="CustomerRepository" style="swimlane;childLayout=stackLayout;horizontal=1;startSize=50;horizontalStack=0;rounded=1;fontSize=14;fontStyle=0;strokeWidth=2;resizeParent=0;resizeLast=1;shadow=0;dashed=0;align=center;arcSize=4;whiteSpace=wrap;html=1;" vertex="1" parent="1">
          <mxGeometry x="127.5" y="420" width="270" height="170" as="geometry" />
        </mxCell>
        <mxCell id="O6OngiWErMgS7959sYpe-54" value="- Methods:&lt;br&gt;&amp;nbsp; - deleteCustomer(String): boolean&lt;br&gt;&amp;nbsp; - documentToCustomer(Document): Customer&lt;br&gt;&amp;nbsp; - insert(Customer): void&lt;br&gt;&amp;nbsp; - findCustomerById(String): Customer&lt;br&gt;&amp;nbsp; - update(String, Customer): boolean&lt;br&gt;&amp;nbsp; - findAll(): List&amp;lt;Customer&amp;gt;" style="align=left;strokeColor=none;fillColor=none;spacingLeft=4;fontSize=12;verticalAlign=top;resizable=0;rotatable=0;part=1;html=1;" vertex="1" parent="O6OngiWErMgS7959sYpe-53">
          <mxGeometry y="50" width="270" height="120" as="geometry" />
        </mxCell>
        <mxCell id="O6OngiWErMgS7959sYpe-55" value="OrderRepository" style="swimlane;childLayout=stackLayout;horizontal=1;startSize=50;horizontalStack=0;rounded=1;fontSize=14;fontStyle=0;strokeWidth=2;resizeParent=0;resizeLast=1;shadow=0;dashed=0;align=center;arcSize=4;whiteSpace=wrap;html=1;" vertex="1" parent="1">
          <mxGeometry x="-130" y="390" width="180" height="150" as="geometry" />
        </mxCell>
        <mxCell id="O6OngiWErMgS7959sYpe-56" value="- Methods:&lt;br&gt;&amp;nbsp; - deleteOrder(String): void&lt;br&gt;&amp;nbsp; - findOrderById(String): Order&lt;br&gt;&amp;nbsp; - findAll(): List&amp;lt;Order&amp;gt;&lt;br&gt;&amp;nbsp; - insert(Order): void&lt;br&gt;&amp;nbsp; - update(String, Order): void" style="align=left;strokeColor=none;fillColor=none;spacingLeft=4;fontSize=12;verticalAlign=top;resizable=0;rotatable=0;part=1;html=1;" vertex="1" parent="O6OngiWErMgS7959sYpe-55">
          <mxGeometry y="50" width="180" height="100" as="geometry" />
        </mxCell>
        <mxCell id="O6OngiWErMgS7959sYpe-57" value="SmartphoneRepository" style="swimlane;childLayout=stackLayout;horizontal=1;startSize=50;horizontalStack=0;rounded=1;fontSize=14;fontStyle=0;strokeWidth=2;resizeParent=0;resizeLast=1;shadow=0;dashed=0;align=center;arcSize=4;whiteSpace=wrap;html=1;" vertex="1" parent="1">
          <mxGeometry x="430" y="450" width="290" height="150" as="geometry" />
        </mxCell>
        <mxCell id="O6OngiWErMgS7959sYpe-58" value="- Methods:&lt;br&gt;&amp;nbsp; - add(Smartphone): void&lt;br&gt;&amp;nbsp; - findById(String): Smartphone&lt;br&gt;&amp;nbsp; - documentToSmartphone(Document): Smartphone&lt;br&gt;&amp;nbsp; - findAll(): List&amp;lt;Smartphone&amp;gt;&lt;br&gt;&amp;nbsp; - update(String, Smartphone): boolean" style="align=left;strokeColor=none;fillColor=none;spacingLeft=4;fontSize=12;verticalAlign=top;resizable=0;rotatable=0;part=1;html=1;" vertex="1" parent="O6OngiWErMgS7959sYpe-57">
          <mxGeometry y="50" width="290" height="100" as="geometry" />
        </mxCell>
        <mxCell id="O6OngiWErMgS7959sYpe-65" style="edgeStyle=orthogonalEdgeStyle;rounded=0;orthogonalLoop=1;jettySize=auto;html=1;exitX=0.5;exitY=1;exitDx=0;exitDy=0;entryX=0.5;entryY=0;entryDx=0;entryDy=0;" edge="1" parent="1" source="O6OngiWErMgS7959sYpe-59" target="O6OngiWErMgS7959sYpe-46">
          <mxGeometry relative="1" as="geometry" />
        </mxCell>
        <mxCell id="O6OngiWErMgS7959sYpe-66" style="edgeStyle=orthogonalEdgeStyle;rounded=0;orthogonalLoop=1;jettySize=auto;html=1;exitX=0.5;exitY=1;exitDx=0;exitDy=0;entryX=0.5;entryY=0;entryDx=0;entryDy=0;" edge="1" parent="1" source="O6OngiWErMgS7959sYpe-59" target="O6OngiWErMgS7959sYpe-44">
          <mxGeometry relative="1" as="geometry" />
        </mxCell>
        <mxCell id="O6OngiWErMgS7959sYpe-59" value="MainController" style="swimlane;childLayout=stackLayout;horizontal=1;startSize=50;horizontalStack=0;rounded=1;fontSize=14;fontStyle=0;strokeWidth=2;resizeParent=0;resizeLast=1;shadow=0;dashed=0;align=center;arcSize=4;whiteSpace=wrap;html=1;" vertex="1" parent="1">
          <mxGeometry x="202.5" y="-90" width="120" height="100" as="geometry" />
        </mxCell>
        <mxCell id="O6OngiWErMgS7959sYpe-60" value="- Methods:&lt;br&gt;&amp;nbsp; - start(): void" style="align=left;strokeColor=none;fillColor=none;spacingLeft=4;fontSize=12;verticalAlign=top;resizable=0;rotatable=0;part=1;html=1;" vertex="1" parent="O6OngiWErMgS7959sYpe-59">
          <mxGeometry y="50" width="120" height="50" as="geometry" />
        </mxCell>
        <mxCell id="O6OngiWErMgS7959sYpe-32" value="OrderItem" style="swimlane;childLayout=stackLayout;horizontal=1;startSize=50;horizontalStack=0;rounded=1;fontSize=14;fontStyle=0;strokeWidth=2;resizeParent=0;resizeLast=1;shadow=0;dashed=0;align=center;arcSize=4;whiteSpace=wrap;html=1;" vertex="1" parent="1">
          <mxGeometry x="760" y="-10" width="150" height="150" as="geometry" />
        </mxCell>
        <mxCell id="O6OngiWErMgS7959sYpe-33" value="- id: String&lt;br&gt;- smartphone: Smartphone&lt;br&gt;- quantity: int&lt;br&gt;- price: double&lt;br&gt;- Methods:&lt;br&gt;&amp;nbsp; - toString(): String" style="align=left;strokeColor=none;fillColor=none;spacingLeft=4;fontSize=12;verticalAlign=top;resizable=0;rotatable=0;part=1;html=1;" vertex="1" parent="O6OngiWErMgS7959sYpe-32">
          <mxGeometry y="50" width="150" height="100" as="geometry" />
        </mxCell>
        <mxCell id="O6OngiWErMgS7959sYpe-67" style="edgeStyle=orthogonalEdgeStyle;rounded=0;orthogonalLoop=1;jettySize=auto;html=1;exitX=0.5;exitY=1;exitDx=0;exitDy=0;entryX=0.531;entryY=0.007;entryDx=0;entryDy=0;entryPerimeter=0;" edge="1" parent="1" source="O6OngiWErMgS7959sYpe-60" target="O6OngiWErMgS7959sYpe-48">
          <mxGeometry relative="1" as="geometry">
            <mxPoint x="570" y="70" as="targetPoint" />
          </mxGeometry>
        </mxCell>
        <mxCell id="O6OngiWErMgS7959sYpe-68" style="edgeStyle=orthogonalEdgeStyle;rounded=0;orthogonalLoop=1;jettySize=auto;html=1;exitX=0.5;exitY=1;exitDx=0;exitDy=0;entryX=0.5;entryY=0;entryDx=0;entryDy=0;" edge="1" parent="1" source="O6OngiWErMgS7959sYpe-45" target="O6OngiWErMgS7959sYpe-35">
          <mxGeometry relative="1" as="geometry" />
        </mxCell>
        <mxCell id="O6OngiWErMgS7959sYpe-69" style="edgeStyle=orthogonalEdgeStyle;rounded=0;orthogonalLoop=1;jettySize=auto;html=1;exitX=0.5;exitY=1;exitDx=0;exitDy=0;entryX=0.5;entryY=0;entryDx=0;entryDy=0;" edge="1" parent="1" source="O6OngiWErMgS7959sYpe-36" target="O6OngiWErMgS7959sYpe-55">
          <mxGeometry relative="1" as="geometry" />
        </mxCell>
        <mxCell id="O6OngiWErMgS7959sYpe-71" style="edgeStyle=orthogonalEdgeStyle;rounded=0;orthogonalLoop=1;jettySize=auto;html=1;exitX=0.5;exitY=1;exitDx=0;exitDy=0;entryX=0;entryY=0.5;entryDx=0;entryDy=0;" edge="1" parent="1" source="O6OngiWErMgS7959sYpe-56" target="O6OngiWErMgS7959sYpe-51">
          <mxGeometry relative="1" as="geometry" />
        </mxCell>
        <mxCell id="O6OngiWErMgS7959sYpe-79" style="edgeStyle=orthogonalEdgeStyle;rounded=0;orthogonalLoop=1;jettySize=auto;html=1;exitX=0.5;exitY=1;exitDx=0;exitDy=0;entryX=0.5;entryY=0;entryDx=0;entryDy=0;" edge="1" parent="1" source="O6OngiWErMgS7959sYpe-47" target="O6OngiWErMgS7959sYpe-38">
          <mxGeometry relative="1" as="geometry" />
        </mxCell>
        <mxCell id="O6OngiWErMgS7959sYpe-80" style="edgeStyle=orthogonalEdgeStyle;rounded=0;orthogonalLoop=1;jettySize=auto;html=1;exitX=0.5;exitY=1;exitDx=0;exitDy=0;entryX=0.5;entryY=0;entryDx=0;entryDy=0;" edge="1" parent="1" source="O6OngiWErMgS7959sYpe-49" target="O6OngiWErMgS7959sYpe-42">
          <mxGeometry relative="1" as="geometry" />
        </mxCell>
        <mxCell id="O6OngiWErMgS7959sYpe-81" style="edgeStyle=orthogonalEdgeStyle;rounded=0;orthogonalLoop=1;jettySize=auto;html=1;exitX=0.5;exitY=1;exitDx=0;exitDy=0;entryX=0.5;entryY=0;entryDx=0;entryDy=0;" edge="1" parent="1" source="O6OngiWErMgS7959sYpe-43" target="O6OngiWErMgS7959sYpe-57">
          <mxGeometry relative="1" as="geometry" />
        </mxCell>
        <mxCell id="O6OngiWErMgS7959sYpe-82" style="edgeStyle=orthogonalEdgeStyle;rounded=0;orthogonalLoop=1;jettySize=auto;html=1;exitX=0.5;exitY=1;exitDx=0;exitDy=0;entryX=0.5;entryY=0;entryDx=0;entryDy=0;" edge="1" parent="1" source="O6OngiWErMgS7959sYpe-39" target="O6OngiWErMgS7959sYpe-53">
          <mxGeometry relative="1" as="geometry" />
        </mxCell>
        <mxCell id="O6OngiWErMgS7959sYpe-84" style="edgeStyle=orthogonalEdgeStyle;rounded=0;orthogonalLoop=1;jettySize=auto;html=1;exitX=0.5;exitY=1;exitDx=0;exitDy=0;entryX=1;entryY=0.5;entryDx=0;entryDy=0;" edge="1" parent="1" source="O6OngiWErMgS7959sYpe-58" target="O6OngiWErMgS7959sYpe-51">
          <mxGeometry relative="1" as="geometry" />
        </mxCell>
        <mxCell id="O6OngiWErMgS7959sYpe-86" style="edgeStyle=orthogonalEdgeStyle;rounded=0;orthogonalLoop=1;jettySize=auto;html=1;exitX=0.5;exitY=1;exitDx=0;exitDy=0;entryX=0.5;entryY=0;entryDx=0;entryDy=0;" edge="1" parent="1" source="O6OngiWErMgS7959sYpe-33" target="O6OngiWErMgS7959sYpe-28">
          <mxGeometry relative="1" as="geometry" />
        </mxCell>
        <mxCell id="O6OngiWErMgS7959sYpe-87" style="edgeStyle=orthogonalEdgeStyle;rounded=0;orthogonalLoop=1;jettySize=auto;html=1;exitX=1;exitY=0.25;exitDx=0;exitDy=0;entryX=0;entryY=0.5;entryDx=0;entryDy=0;" edge="1" parent="1" source="O6OngiWErMgS7959sYpe-43" target="O6OngiWErMgS7959sYpe-29">
          <mxGeometry relative="1" as="geometry" />
        </mxCell>
        <mxCell id="O6OngiWErMgS7959sYpe-89" style="edgeStyle=orthogonalEdgeStyle;rounded=0;orthogonalLoop=1;jettySize=auto;html=1;exitX=0.5;exitY=1;exitDx=0;exitDy=0;entryX=0.5;entryY=0;entryDx=0;entryDy=0;" edge="1" parent="1" source="O6OngiWErMgS7959sYpe-27" target="O6OngiWErMgS7959sYpe-30">
          <mxGeometry relative="1" as="geometry" />
        </mxCell>
        <mxCell id="O6OngiWErMgS7959sYpe-90" style="edgeStyle=orthogonalEdgeStyle;rounded=0;orthogonalLoop=1;jettySize=auto;html=1;exitX=0.5;exitY=1;exitDx=0;exitDy=0;entryX=0.5;entryY=0;entryDx=0;entryDy=0;" edge="1" parent="1" source="O6OngiWErMgS7959sYpe-31" target="O6OngiWErMgS7959sYpe-32">
          <mxGeometry relative="1" as="geometry" />
        </mxCell>
      </root>
    </mxGraphModel>
  </diagram>
</mxfile>
